<?xml version="1.0" encoding="UTF-8" standalone="no"?>
<!-- Created with Inkscape (http://www.inkscape.org/) -->

<svg
   xmlns:dc="http://purl.org/dc/elements/1.1/"
   xmlns:cc="http://creativecommons.org/ns#"
   xmlns:rdf="http://www.w3.org/1999/02/22-rdf-syntax-ns#"
   xmlns:svg="http://www.w3.org/2000/svg"
   xmlns="http://www.w3.org/2000/svg"
   xmlns:inkscape="http://www.inkscape.org/namespaces/inkscape"
   version="1.1"
   width="114.5125"
   height="160.675"
   id="svg2"
   xml:space="preserve"><metadata
     id="metadata8"><rdf:RDF><cc:Work
         rdf:about=""><dc:format>image/svg+xml</dc:format><dc:type
           rdf:resource="http://purl.org/dc/dcmitype/StillImage" /></cc:Work></rdf:RDF></metadata><defs
     id="defs6"><clipPath
       id="clipPath78"><path
         d="m 0,258.988 913.719,0 0,1026.01 -913.719,0 0,-1026.01 z"
         inkscape:connector-curvature="0"
         id="path80" /></clipPath></defs><g
     transform="matrix(1.25,0,0,-1.25,0,160.675)"
     id="g10"><g
       transform="scale(0.1,0.1)"
       id="g12"><path
         d="m 267.953,157.77 c 2.293,-0.489 4.102,-0.68 6.395,-0.68 10.879,0 18.125,6.781 18.125,15.832 0,7.637 -5.438,10.699 -12.782,10.699 -3.152,0 -5.539,-0.293 -6.972,-0.672 l -4.766,-25.179 z m -1.808,30.91 c 3.621,0.851 8.679,1.429 13.929,1.429 6.196,0 12.114,-1.531 15.742,-4.968 3.051,-2.86 4.672,-6.582 4.672,-11.641 0,-7.25 -3.535,-13.262 -7.73,-16.789 -4.961,-4.102 -12.211,-6.102 -19.461,-6.102 -2.387,0 -4.582,0.192 -6.582,0.469 l -4.867,-25.75 -7.821,0 12.118,63.352"
         inkscape:connector-curvature="0"
         id="path14"
         style="fill:#8f9396;fill-opacity:1;fill-rule:nonzero;stroke:none" /><path
         d="m 335.852,165.578 c -1.149,0.293 -2.864,0.672 -5.536,0.672 -11.925,0 -21.66,-12.5 -21.75,-25.289 0,-5.152 1.809,-10.191 7.918,-10.191 6.582,0 14.411,8.582 16.696,20.878 l 2.672,13.93 z m -5.153,-40.25 c 0,2.762 0.477,7.141 1.047,11.922 l -0.187,0 c -5.059,-9.551 -11.352,-12.98 -17.938,-12.98 -8.109,0 -13.258,6.5 -13.258,15.269 0,16.031 11.828,33.012 31.961,33.012 4.387,0 9.254,-0.762 12.399,-1.813 l -4.672,-24.047 c -1.531,-8.011 -2.196,-16.222 -2.004,-21.363 l -7.348,0"
         inkscape:connector-curvature="0"
         id="path16"
         style="fill:#8f9396;fill-opacity:1;fill-rule:nonzero;stroke:none" /><path
         d="m 349.844,125.328 5.629,29.762 c 1.144,6.012 1.906,12.109 2.382,16.41 l 6.969,0 c -0.379,-3.25 -0.765,-6.5 -1.238,-10.02 l 0.281,0 c 2.961,6.301 7.922,11.071 14.121,11.071 0.668,0 1.621,-0.09 2.192,-0.192 l -1.524,-7.82 c -0.476,0.09 -1.238,0.18 -2.097,0.18 -6.871,0 -12.973,-8.297 -14.981,-19.078 l -3.812,-20.313 -7.922,0"
         inkscape:connector-curvature="0"
         id="path18"
         style="fill:#8f9396;fill-opacity:1;fill-rule:nonzero;stroke:none" /><path
         d="m 403.059,182.57 -2.098,-11.07 11.066,0 -1.242,-6.199 -11.062,0 -4.293,-22.422 c -0.477,-2.578 -0.86,-4.969 -0.86,-7.348 0,-2.769 1.332,-4.48 4.387,-4.48 1.336,0 2.668,0.097 3.723,0.379 l -0.379,-6.301 c -1.43,-0.481 -3.821,-0.859 -6.11,-0.859 -7.058,0 -9.73,4.3 -9.73,8.968 0,2.672 0.281,5.34 0.957,8.692 l 4.574,23.371 -6.68,0 1.243,6.199 6.586,0 1.621,8.488 8.297,2.582"
         inkscape:connector-curvature="0"
         id="path20"
         style="fill:#8f9396;fill-opacity:1;fill-rule:nonzero;stroke:none" /><path
         d="m 412.484,125.328 6.207,32.723 c 1.051,5.16 1.621,9.629 2.188,13.449 l 7.066,0 -1.148,-9.059 0.191,0 c 4.106,6.489 10.309,10.11 17.078,10.11 5.536,0 11.735,-3.153 11.735,-12.891 0,-1.988 -0.379,-4.961 -0.856,-7.441 l -5.156,-26.891 -7.918,0 5.059,26.613 c 0.379,1.809 0.668,4.008 0.668,5.918 0,4.661 -1.813,8.11 -7.25,8.11 -5.629,0 -13.645,-6.778 -15.743,-18.219 l -4.199,-22.422 -7.922,0"
         inkscape:connector-curvature="0"
         id="path22"
         style="fill:#8f9396;fill-opacity:1;fill-rule:nonzero;stroke:none" /><path
         d="m 494.984,160.531 c 0,3.719 -2.859,5.821 -7.058,5.821 -7.551,0 -13.176,-7.352 -15.078,-14.614 12.39,-0.09 22.136,1.543 22.136,8.692 l 0,0.101 z m 1.711,-32.543 c -3.437,-2 -9.062,-3.718 -15.254,-3.718 -12.218,0 -17.57,8.402 -17.57,18.609 0,13.922 10.313,29.672 25.195,29.672 8.782,0 13.547,-5.25 13.547,-11.832 0,-12.117 -13.652,-15.36 -30.722,-15.078 -0.383,-2 -0.098,-6.289 0.957,-8.77 1.804,-4.109 5.535,-6.211 10.293,-6.211 5.449,0 9.55,1.719 12.41,3.25 l 1.144,-5.922"
         inkscape:connector-curvature="0"
         id="path24"
         style="fill:#8f9396;fill-opacity:1;fill-rule:nonzero;stroke:none" /><path
         d="m 506.586,125.328 5.625,29.762 c 1.152,6.012 1.914,12.109 2.394,16.41 l 6.961,0 c -0.378,-3.25 -0.769,-6.5 -1.238,-10.02 l 0.281,0 c 2.961,6.301 7.922,11.071 14.121,11.071 0.676,0 1.622,-0.09 2.2,-0.192 l -1.524,-7.82 c -0.48,0.09 -1.242,0.18 -2.101,0.18 -6.875,0 -12.977,-8.297 -14.981,-19.078 l -3.816,-20.313 -7.922,0"
         inkscape:connector-curvature="0"
         id="path26"
         style="fill:#8f9396;fill-opacity:1;fill-rule:nonzero;stroke:none" /><path
         d="m 537.281,133.328 c 2.196,-1.328 6.211,-2.859 9.93,-2.859 5.344,0 8.769,3.441 8.769,7.543 0,3.629 -1.609,5.808 -6.386,8.488 -5.34,2.961 -8.289,7.059 -8.289,11.738 0,8.114 6.953,14.313 16.687,14.313 4.199,0 7.922,-1.141 9.641,-2.289 l -2.199,-6.012 c -1.629,0.949 -4.579,2.102 -8.016,2.102 -4.766,0 -8.195,-2.961 -8.195,-6.973 0,-3.34 2.187,-5.438 6.289,-7.731 5.156,-2.949 8.683,-6.957 8.683,-12.109 0,-9.73 -7.922,-15.269 -17.656,-15.269 -4.961,0.101 -9.348,1.621 -11.445,3.242 l 2.187,5.816"
         inkscape:connector-curvature="0"
         id="path28"
         style="fill:#8f9396;fill-opacity:1;fill-rule:nonzero;stroke:none" /><path
         d="m 604.613,179.422 c -2.675,0 -4.48,2.098 -4.48,4.957 0.097,3.062 2.383,5.34 5.254,5.34 2.859,0 4.656,-2.09 4.656,-4.949 -0.098,-3.161 -2.285,-5.348 -5.34,-5.348 l -0.09,0 z m -14.793,-54.094 8.875,46.172 7.922,0 -8.879,-46.172 -7.918,0"
         inkscape:connector-curvature="0"
         id="path30"
         style="fill:#8f9396;fill-opacity:1;fill-rule:nonzero;stroke:none" /><path
         d="m 611.656,125.328 6.199,32.723 c 1.055,5.16 1.622,9.629 2.188,13.449 l 7.07,0 -1.152,-9.059 0.195,0 c 4.102,6.489 10.305,10.11 17.082,10.11 5.528,0 11.739,-3.153 11.739,-12.891 0,-1.988 -0.391,-4.961 -0.86,-7.441 l -5.156,-26.891 -7.922,0 5.059,26.613 c 0.382,1.809 0.664,4.008 0.664,5.918 0,4.661 -1.805,8.11 -7.254,8.11 -5.625,0 -13.645,-6.778 -15.735,-18.219 l -4.199,-22.422 -7.918,0"
         inkscape:connector-curvature="0"
         id="path32"
         style="fill:#8f9396;fill-opacity:1;fill-rule:nonzero;stroke:none" /><path
         d="m 12.2461,84.2383 7.9141,0 -10.96489,-57.4297 25.94529,0 -1.3359,-6.8672 -33.7695438,0 L 12.2461,84.2383"
         inkscape:connector-curvature="0"
         id="path34"
         style="fill:#8f9396;fill-opacity:1;fill-rule:nonzero;stroke:none" /><path
         d="m 77.3789,60.1992 c -1.1445,0.2813 -2.8633,0.6719 -5.5351,0.6719 -11.9258,0 -21.6563,-12.5 -21.75,-25.293 0,-5.1484 1.8164,-10.1992 7.9179,-10.1992 6.5821,0 14.4102,8.5899 16.6953,20.8906 l 2.6719,13.9297 z M 72.2305,19.9414 c 0,2.7578 0.4765,7.1484 1.0468,11.9297 l -0.1914,0 C 68.0273,22.3203 61.7344,18.8906 55.1523,18.8906 c -8.1132,0 -13.2617,6.4883 -13.2617,15.2578 0,16.043 11.8282,33.0235 31.961,33.0235 4.3867,0 9.2539,-0.7617 12.4023,-1.8125 L 81.582,41.3086 C 80.0508,33.3008 79.3867,25.0898 79.5742,19.9414 l -7.3437,0"
         inkscape:connector-curvature="0"
         id="path36"
         style="fill:#8f9396;fill-opacity:1;fill-rule:nonzero;stroke:none" /><path
         d="m 91.3711,19.9414 6.2031,32.7305 c 1.0469,5.1484 1.625,9.6289 2.1914,13.4492 l 7.0624,0 -1.148,-9.0703 0.195,0 c 4.105,6.5 10.301,10.1211 17.074,10.1211 5.531,0 11.739,-3.1524 11.739,-12.8907 0,-2 -0.379,-4.9609 -0.86,-7.4414 l -5.156,-26.8984 -7.914,0 5.054,26.6172 c 0.383,1.8125 0.672,4.0117 0.672,5.9102 0,4.6718 -1.812,8.1093 -7.254,8.1093 -5.632,0 -13.644,-6.7695 -15.738,-18.207 l -4.199,-22.4297 -7.9219,0"
         inkscape:connector-curvature="0"
         id="path38"
         style="fill:#8f9396;fill-opacity:1;fill-rule:nonzero;stroke:none" /><path
         d="m 178.156,59.25 c -1.433,0.6719 -4.293,1.5312 -7.629,1.5312 -11.547,0 -19.468,-12.0312 -19.558,-23.4726 0,-5.0586 1.808,-11.0781 8.871,-11.0781 6.777,0 13.738,8.5976 15.359,17.6484 L 178.156,59.25 z M 142.758,9.44141 c 2.769,-1.71094 7.351,-3.05079 12.215,-3.05079 7.726,0 13.832,4.00778 16.601,16.49998 l 1.528,6.8789 -0.29,0 c -4.007,-6.5781 -9.632,-9.8281 -16.031,-9.8281 -9.25,0 -14.023,7.8203 -14.023,16.0195 -0.094,15.6602 11.453,31.211 29.293,31.211 5.347,0 11.164,-1.5313 14.789,-3.2422 L 179.777,25.7695 C 177.871,16.0312 175.293,9.25 170.426,5.14844 165.852,1.14062 159.645,0 154.309,0 148.676,0 143.43,1.32812 140.469,3.23828 l 2.289,6.20313"
         inkscape:connector-curvature="0"
         id="path40"
         style="fill:#8f9396;fill-opacity:1;fill-rule:nonzero;stroke:none" /><path
         d="M 237.277,66.1211 231.078,33.3906 C 230.121,28.2383 229.453,23.75 228.98,19.9414 l -7.16,0 1.246,8.6875 -0.195,0 c -4.105,-6.0195 -10.211,-9.7383 -16.316,-9.7383 -5.914,0 -12.117,2.8594 -12.117,13.3594 0,2.1992 0.289,4.6797 0.859,7.7188 l 4.969,26.1523 7.914,0 -4.868,-25.7617 c -0.574,-2.5782 -0.859,-4.7813 -0.859,-6.7813 0,-4.7695 2.004,-8.0195 7.445,-8.0195 5.723,0 13.067,6.6914 14.973,16.9023 l 4.484,23.6602 7.922,0"
         inkscape:connector-curvature="0"
         id="path42"
         style="fill:#8f9396;fill-opacity:1;fill-rule:nonzero;stroke:none" /><path
         d="m 277.699,60.1992 c -1.144,0.2813 -2.859,0.6719 -5.531,0.6719 -11.93,0 -21.66,-12.5 -21.754,-25.293 0,-5.1484 1.813,-10.1992 7.922,-10.1992 6.582,0 14.402,8.5899 16.695,20.8906 l 2.668,13.9297 z m -5.148,-40.2578 c 0,2.7578 0.476,7.1484 1.047,11.9297 l -0.188,0 c -5.058,-9.5508 -11.355,-12.9805 -17.937,-12.9805 -8.11,0 -13.262,6.4883 -13.262,15.2578 0,16.043 11.832,33.0235 31.965,33.0235 4.383,0 9.246,-0.7617 12.398,-1.8125 l -4.676,-24.0508 c -1.527,-8.0078 -2.191,-16.2188 -2,-21.3672 l -7.347,0"
         inkscape:connector-curvature="0"
         id="path44"
         style="fill:#8f9396;fill-opacity:1;fill-rule:nonzero;stroke:none" /><path
         d="m 327.562,59.25 c -1.429,0.6719 -4.289,1.5312 -7.628,1.5312 -11.543,0 -19.465,-12.0312 -19.559,-23.4726 0,-5.0586 1.813,-11.0781 8.871,-11.0781 6.781,0 13.742,8.5976 15.363,17.6484 L 327.562,59.25 z M 292.168,9.44141 c 2.77,-1.71094 7.348,-3.05079 12.211,-3.05079 7.73,0 13.836,4.00778 16.601,16.49998 l 1.532,6.8789 -0.289,0 c -4.008,-6.5781 -9.633,-9.8281 -16.032,-9.8281 -9.253,0 -14.023,7.8203 -14.023,16.0195 -0.094,15.6602 11.449,31.211 29.293,31.211 5.348,0 11.16,-1.5313 14.789,-3.2422 L 329.184,25.7695 C 327.281,16.0312 324.703,9.25 319.836,5.14844 315.258,1.14062 309.055,0 303.711,0 298.086,0 292.836,1.32812 289.879,3.23828 l 2.289,6.20313"
         inkscape:connector-curvature="0"
         id="path46"
         style="fill:#8f9396;fill-opacity:1;fill-rule:nonzero;stroke:none" /><path
         d="m 373.234,55.1406 c 0,3.7305 -2.863,5.8282 -7.058,5.8282 -7.539,0 -13.168,-7.3477 -15.071,-14.6094 12.395,-0.0899 22.129,1.5312 22.129,8.6797 l 0,0.1015 z m 1.719,-32.5312 c -3.433,-2 -9.062,-3.7188 -15.265,-3.7188 -12.211,0 -17.559,8.3985 -17.559,18.5977 0,13.9336 10.309,29.6836 25.191,29.6836 8.774,0 13.551,-5.25 13.551,-11.8321 0,-12.121 -13.644,-15.371 -30.723,-15.0781 -0.382,-2 -0.097,-6.2929 0.957,-8.7734 1.805,-4.1094 5.532,-6.2071 10.297,-6.2071 5.438,0 9.539,1.7188 12.403,3.25 l 1.148,-5.9218"
         inkscape:connector-curvature="0"
         id="path48"
         style="fill:#8f9396;fill-opacity:1;fill-rule:nonzero;stroke:none" /><path
         d="m 411.738,26.5312 c 2.864,-0.3828 5.914,-0.4804 8.301,-0.4804 10.207,0 17.649,3.0586 22.992,8.5781 5.723,5.9219 8.778,14.5899 8.778,23.6719 0,11.4375 -5.633,19.9375 -21.661,19.9375 -2.863,0 -6.386,-0.1992 -8.777,-0.668 l -9.633,-51.0391 z m 2.864,56.8477 c 4.863,0.8594 10.3,1.3399 15.929,1.3399 10.781,0 18.895,-3.0586 23.664,-8.5782 3.434,-3.6289 6.012,-9.3515 6.11,-17.4609 0,-11.6406 -4.68,-23.1914 -12.981,-30.25 -7.441,-6.1992 -16.793,-8.9688 -29.101,-8.9688 -5.629,0 -11.446,0.3789 -15.645,0.8672 l 12.024,63.0508"
         inkscape:connector-curvature="0"
         id="path50"
         style="fill:#8f9396;fill-opacity:1;fill-rule:nonzero;stroke:none" /><path
         d="m 496.508,55.1406 c 0,3.7305 -2.86,5.8282 -7.051,5.8282 -7.547,0 -13.172,-7.3477 -15.078,-14.6094 12.394,-0.0899 22.129,1.5312 22.129,8.6797 l 0,0.1015 z m 1.719,-32.5312 c -3.438,-2 -9.063,-3.7188 -15.262,-3.7188 -12.207,0 -17.563,8.3985 -17.563,18.5977 0,13.9336 10.317,29.6836 25.188,29.6836 8.781,0 13.547,-5.25 13.547,-11.8321 0,-12.121 -13.645,-15.371 -30.715,-15.0781 -0.379,-2 -0.098,-6.2929 0.957,-8.7734 1.809,-4.1094 5.527,-6.2071 10.293,-6.2071 5.449,0 9.543,1.7188 12.402,3.25 l 1.153,-5.9218"
         inkscape:connector-curvature="0"
         id="path52"
         style="fill:#8f9396;fill-opacity:1;fill-rule:nonzero;stroke:none" /><path
         d="m 518.422,66.1211 4.004,-26.332 c 0.664,-5.25 1.242,-8.7891 1.426,-11.3594 l 0.304,0 c 0.946,2.4687 2.188,5.5391 4.852,10.7812 l 14.121,26.9102 8.683,0 -25.664,-46.1797 -7.824,0 -8.015,46.1797 8.113,0"
         inkscape:connector-curvature="0"
         id="path54"
         style="fill:#8f9396;fill-opacity:1;fill-rule:nonzero;stroke:none" /><path
         d="m 582.309,55.1406 c 0,3.7305 -2.86,5.8282 -7.059,5.8282 -7.52,0 -13.156,-7.3477 -15.07,-14.6094 12.414,-0.0899 22.129,1.5312 22.129,8.6797 l 0,0.1015 z m 1.73,-32.5312 c -3.437,-2 -9.074,-3.7188 -15.273,-3.7188 -12.207,0 -17.551,8.3985 -17.551,18.5977 0,13.9336 10.293,29.6836 25.187,29.6836 8.77,0 13.555,-5.25 13.555,-11.8321 0,-12.121 -13.645,-15.371 -30.723,-15.0781 -0.39,-2 -0.097,-6.2929 0.946,-8.7734 1.816,-4.1094 5.539,-6.2071 10.312,-6.2071 5.43,0 9.531,1.7188 12.395,3.25 l 1.152,-5.9218"
         inkscape:connector-curvature="0"
         id="path56"
         style="fill:#8f9396;fill-opacity:1;fill-rule:nonzero;stroke:none" /><path
         d="m 594.02,19.9414 12.878,67.7383 7.922,0 -12.98,-67.7383 -7.82,0"
         inkscape:connector-curvature="0"
         id="path58"
         style="fill:#8f9396;fill-opacity:1;fill-rule:nonzero;stroke:none" /><path
         d="m 624.633,38.1602 c 0,-7.5391 4.094,-12.9805 10.879,-12.9805 9.347,0 16.406,12.0312 16.406,22.8086 0,5.3398 -2.48,12.8828 -10.781,12.8828 -9.922,0 -16.602,-12.1211 -16.504,-22.7109 z m 35.402,9.7304 c 0,-14.2109 -10.117,-29 -25.586,-29 -11.543,0 -18.027,8.5782 -18.027,18.9883 0,15.1719 10.594,29.293 25.574,29.293 12.492,0 18.039,-9.4531 18.039,-19.2813"
         inkscape:connector-curvature="0"
         id="path60"
         style="fill:#8f9396;fill-opacity:1;fill-rule:nonzero;stroke:none" /><path
         d="m 674.398,27.6602 c 2.004,-1.6094 5.059,-2.4805 8.79,-2.4805 10.195,0 18.789,12.6015 18.789,24.7305 0,4.8515 -2.196,10.6679 -8.875,10.6679 -6.204,0 -14.024,-7.1484 -16.407,-20.0273 L 674.398,27.6602 z M 661.422,1.05078 670.68,49.6992 c 0.957,5.5391 1.914,11.8399 2.578,16.5196 l 7.254,0 -1.348,-8.7774 0.195,0 c 4.2,6.0078 10.313,9.7305 16.602,9.7305 10.019,0 14.219,-8.211 14.219,-16.7031 0,-16.2188 -11.649,-31.5782 -26.992,-31.5782 -4.969,0 -8.211,1.0508 -10.02,2.0977 l -0.195,0 -3.731,-19.93752 -7.82,0"
         inkscape:connector-curvature="0"
         id="path62"
         style="fill:#8f9396;fill-opacity:1;fill-rule:nonzero;stroke:none" /><path
         d="m 715.59,19.9414 6.191,32.7305 c 0.957,5.1484 1.621,9.6289 2.102,13.4492 l 6.961,0 -1.239,-8.6797 0.293,0 c 4.286,6.3867 10.118,9.7305 16.211,9.7305 7.071,0 10.411,-4.4922 10.782,-10.3125 4.101,6.6914 10.019,10.2109 16.992,10.3125 5.332,0 11.152,-3.4414 11.152,-12.1328 0,-2.1797 -0.285,-5.2383 -0.762,-7.8086 l -5.156,-27.2891 -7.726,0 4.961,26.6172 c 0.39,1.7226 0.664,4.1016 0.664,6.0117 0,4.8711 -1.797,8.0078 -6.954,8.0078 -5.722,0 -12.507,-6.6797 -14.414,-16.9765 l -4.48,-23.6602 -7.629,0 5.156,27.0977 c 0.371,2 0.567,3.8125 0.567,5.6328 0,3.9062 -1.055,7.9062 -6.864,7.9062 -5.832,0 -12.98,-7.6289 -14.796,-17.457 l -4.297,-23.1797 -7.715,0"
         inkscape:connector-curvature="0"
         id="path64"
         style="fill:#8f9396;fill-opacity:1;fill-rule:nonzero;stroke:none" /><path
         d="m 824.203,55.1406 c 0,3.7305 -2.859,5.8282 -7.058,5.8282 -7.551,0 -13.176,-7.3477 -15.071,-14.6094 12.383,-0.0899 22.129,1.5312 22.129,8.6797 l 0,0.1015 z m 1.719,-32.5312 c -3.445,-2 -9.07,-3.7188 -15.262,-3.7188 -12.219,0 -17.57,8.3985 -17.57,18.5977 0,13.9336 10.312,29.6836 25.195,29.6836 8.781,0 13.547,-5.25 13.547,-11.8321 0,-12.121 -13.644,-15.371 -30.723,-15.0781 -0.382,-2 -0.097,-6.2929 0.965,-8.7734 1.797,-4.1094 5.528,-6.2071 10.293,-6.2071 5.449,0 9.543,1.7188 12.403,3.25 l 1.152,-5.9218"
         inkscape:connector-curvature="0"
         id="path66"
         style="fill:#8f9396;fill-opacity:1;fill-rule:nonzero;stroke:none" /><path
         d="m 835.805,19.9414 6.211,32.7305 c 1.046,5.1484 1.613,9.6289 2.179,13.4492 l 7.071,0 -1.145,-9.0703 0.195,0 c 4.094,6.5 10.293,10.1211 17.071,10.1211 5.527,0 11.738,-3.1524 11.738,-12.8907 0,-2 -0.391,-4.9609 -0.859,-7.4414 l -5.157,-26.8984 -7.918,0 5.059,26.6172 c 0.379,1.8125 0.664,4.0117 0.664,5.9102 0,4.6718 -1.797,8.1093 -7.246,8.1093 -5.637,0 -13.652,-6.7695 -15.742,-18.207 l -4.199,-22.4297 -7.922,0"
         inkscape:connector-curvature="0"
         id="path68"
         style="fill:#8f9396;fill-opacity:1;fill-rule:nonzero;stroke:none" /><path
         d="m 907.145,77.1914 -2.102,-11.0703 11.066,0 -1.242,-6.1992 -11.074,0 -4.285,-22.4336 c -0.481,-2.5664 -0.852,-4.9571 -0.852,-7.3399 0,-2.7695 1.328,-4.4765 4.375,-4.4765 1.34,0 2.676,0.0976 3.731,0.3789 L 906.371,19.75 c -1.426,-0.4805 -3.816,-0.8594 -6.101,-0.8594 -7.063,0 -9.727,4.3008 -9.727,8.9688 0,2.6718 0.281,5.3398 0.957,8.6914 l 4.57,23.3711 -6.679,0 1.25,6.1992 6.582,0 1.621,8.4883 8.301,2.582"
         inkscape:connector-curvature="0"
         id="path70"
         style="fill:#8f9396;fill-opacity:1;fill-rule:nonzero;stroke:none" /><path
         d="m 879.363,751.516 -1.215,19.48 c -0.121,2.555 -0.121,5.723 -0.242,9.25 l -0.367,0 c -0.851,-2.922 -1.82,-6.816 -2.801,-9.859 L 868.777,752 l -6.82,0 -5.969,18.875 c -0.601,2.555 -1.578,6.449 -2.308,9.371 l -0.368,0 c 0,-3.043 -0.117,-6.207 -0.242,-9.25 l -1.218,-19.48 -6.329,0 2.434,33.113 9.863,0 5.719,-16.191 c 0.734,-2.559 1.344,-4.993 2.195,-8.395 l 0.118,0 c 0.855,3.043 1.582,5.836 2.316,8.273 l 5.719,16.313 9.496,0 2.558,-33.113 -6.578,0 z m -35.789,33.113 0,-5.477 -10.594,0 0,-27.636 -6.57,0 0,27.636 -10.594,0 0,5.477 27.758,0"
         inkscape:connector-curvature="0"
         id="path72"
         style="fill:#ffffff;fill-opacity:1;fill-rule:nonzero;stroke:none" /><g
         id="g74"><g
           clip-path="url(#clipPath78)"
           id="g76"><path
             d="M 913.719,1285.36 0,1285.36 0,592.66 60.3281,547.316 0,513.996 0,258.988 l 913.719,0 0,255.008 -48.598,27.621 48.598,51.043"
             inkscape:connector-curvature="0"
             id="path82"
             style="fill:#1064a7;fill-opacity:1;fill-rule:nonzero;stroke:none" /><path
             d="m 442.977,513.992 78.625,0 0,398.605 -78.625,0 0,-398.605 z"
             inkscape:connector-curvature="0"
             id="path84"
             style="fill:#ffffff;fill-opacity:1;fill-rule:nonzero;stroke:none" /><path
             d="m 307.547,746.008 c -42.777,25.75 -56.317,35.23 -56.317,63.164 0,17.918 13.426,37.062 51.11,37.062 20.637,0 36.246,-6.234 47.336,-12.332 l 13.926,73.899 c -14.551,6.437 -55.051,15.953 -79.403,15.953 -61.558,0 -123.672,-36.5 -123.672,-118.039 0,-23.918 9.657,-69.926 74.344,-109.344 34.465,-22.371 52.352,-35.535 51.641,-68.441 -0.34,-16.059 -10.707,-35.207 -58.125,-35.207 l -228.39090625,-0.164 0,-77.161 L 249.59,515.492 c 77.312,0.176 129.265,47.653 129.265,118.149 0,45.832 -23.992,83.636 -71.308,112.367"
             inkscape:connector-curvature="0"
             id="path86"
             style="fill:#ffffff;fill-opacity:1;fill-rule:nonzero;stroke:none" /><path
             d="m 913.719,592.672 -226.711,0.199 0,320.012 -83.824,-0.031 0,-398.86 310.535,0"
             inkscape:connector-curvature="0"
             id="path88"
             style="fill:#ffffff;fill-opacity:1;fill-rule:nonzero;stroke:none" /><path
             d="m 877.516,303.91 -1.387,19.781 c -0.109,1.707 -0.215,3.852 -0.32,6.2 l -0.215,0 c -0.75,-1.707 -1.606,-4.703 -2.356,-6.95 l -6.734,-18.601 -4.383,0 -6.844,19.133 c -0.535,1.82 -1.601,4.597 -2.136,6.418 l -0.211,0 c 0,-1.926 -0.114,-3.953 -0.219,-6.2 l -1.391,-19.781 -3.847,0 2.351,29.082 5.668,0 6.844,-18.605 c 0.855,-2.137 1.387,-4.168 2.031,-6.094 l 0.211,0 c 0.645,2.035 1.391,4.387 1.82,5.883 l 6.84,18.816 5.778,0 2.562,-29.082 -4.062,0 z m -31.539,29.082 0,-3.316 -9.836,0 0,-25.766 -3.848,0 0,25.766 -9.836,0 0,3.316"
             inkscape:connector-curvature="0"
             id="path90"
             style="fill:#ffffff;fill-opacity:1;fill-rule:nonzero;stroke:none" /><path
             d="m 0.0117188,513.125 2.75391,0 0,2.27344 -2.75391,0 0,-2.27344 z"
             inkscape:connector-curvature="0"
             id="path92"
             style="fill:#1064a7;fill-opacity:1;fill-rule:nonzero;stroke:none" /></g></g></g></g></svg>